<svg width="158" height="158" viewBox="0 0 158 158" fill="none" xmlns="http://www.w3.org/2000/svg">
<g filter="url(#filter0_d_9_23)">
<rect x="3" width="150" height="150" rx="47" fill="#D9D9D9"/>
</g>
<path d="M48.9375 97V81H50.875V95.2812H58.3125V97H48.9375ZM74.1895 89C74.1895 90.6875 73.8848 92.1458 73.2754 93.375C72.666 94.6042 71.8301 95.5521 70.7676 96.2188C69.7051 96.8854 68.4915 97.2187 67.127 97.2187C65.7624 97.2187 64.5488 96.8854 63.4863 96.2188C62.4238 95.5521 61.5879 94.6042 60.9785 93.375C60.3691 92.1458 60.0645 90.6875 60.0645 89C60.0645 87.3125 60.3691 85.8542 60.9785 84.625C61.5879 83.3958 62.4238 82.4479 63.4863 81.7812C64.5488 81.1146 65.7624 80.7812 67.127 80.7812C68.4915 80.7812 69.7051 81.1146 70.7676 81.7812C71.8301 82.4479 72.666 83.3958 73.2754 84.625C73.8848 85.8542 74.1895 87.3125 74.1895 89ZM72.3145 89C72.3145 87.6146 72.0827 86.4453 71.6191 85.4922C71.1608 84.5391 70.5384 83.8177 69.752 83.3281C68.9707 82.8385 68.0957 82.5937 67.127 82.5937C66.1582 82.5937 65.2806 82.8385 64.4941 83.3281C63.7129 83.8177 63.0905 84.5391 62.627 85.4922C62.1686 86.4453 61.9395 87.6146 61.9395 89C61.9395 90.3854 62.1686 91.5547 62.627 92.5078C63.0905 93.4609 63.7129 94.1823 64.4941 94.6719C65.2806 95.1615 66.1582 95.4062 67.127 95.4062C68.0957 95.4062 68.9707 95.1615 69.752 94.6719C70.5384 94.1823 71.1608 93.4609 71.6191 92.5078C72.0827 91.5547 72.3145 90.3854 72.3145 89ZM88.3848 86C88.2129 85.474 87.9863 85.0026 87.7051 84.5859C87.429 84.1641 87.0983 83.8047 86.7129 83.5078C86.3327 83.2109 85.9004 82.9844 85.416 82.8281C84.9316 82.6719 84.4004 82.5937 83.8223 82.5937C82.8743 82.5937 82.0124 82.8385 81.2363 83.3281C80.4603 83.8177 79.8431 84.5391 79.3848 85.4922C78.9264 86.4453 78.6973 87.6146 78.6973 89C78.6973 90.3854 78.929 91.5547 79.3926 92.5078C79.8561 93.4609 80.4837 94.1823 81.2754 94.6719C82.0671 95.1615 82.9577 95.4062 83.9473 95.4062C84.8639 95.4062 85.6712 95.2109 86.3691 94.8203C87.0723 94.4245 87.6191 93.8672 88.0098 93.1484C88.4056 92.4245 88.6035 91.5729 88.6035 90.5937L89.1973 90.7187H84.3848V89H90.4785V90.7187C90.4785 92.0365 90.1973 93.1823 89.6348 94.1562C89.0775 95.1302 88.3066 95.8854 87.3223 96.4219C86.3431 96.9531 85.2181 97.2187 83.9473 97.2187C82.5306 97.2187 81.2858 96.8854 80.2129 96.2188C79.1452 95.5521 78.3118 94.6042 77.7129 93.375C77.1191 92.1458 76.8223 90.6875 76.8223 89C76.8223 87.7344 76.9915 86.5964 77.3301 85.5859C77.6738 84.5703 78.1582 83.7057 78.7832 82.9922C79.4082 82.2786 80.1478 81.7318 81.002 81.3516C81.8561 80.9714 82.7962 80.7812 83.8223 80.7812C84.666 80.7812 85.4525 80.9089 86.1816 81.1641C86.916 81.4141 87.5697 81.7708 88.1426 82.2344C88.7207 82.6927 89.2025 83.2422 89.5879 83.8828C89.9733 84.5182 90.2389 85.224 90.3848 86H88.3848ZM107.297 89C107.297 90.6875 106.992 92.1458 106.383 93.375C105.773 94.6042 104.938 95.5521 103.875 96.2188C102.813 96.8854 101.599 97.2187 100.234 97.2187C98.8698 97.2187 97.6563 96.8854 96.5938 96.2188C95.5313 95.5521 94.6953 94.6042 94.0859 93.375C93.4766 92.1458 93.1719 90.6875 93.1719 89C93.1719 87.3125 93.4766 85.8542 94.0859 84.625C94.6953 83.3958 95.5313 82.4479 96.5938 81.7812C97.6563 81.1146 98.8698 80.7812 100.234 80.7812C101.599 80.7812 102.813 81.1146 103.875 81.7812C104.938 82.4479 105.773 83.3958 106.383 84.625C106.992 85.8542 107.297 87.3125 107.297 89ZM105.422 89C105.422 87.6146 105.19 86.4453 104.727 85.4922C104.268 84.5391 103.646 83.8177 102.859 83.3281C102.078 82.8385 101.203 82.5937 100.234 82.5937C99.2656 82.5937 98.388 82.8385 97.6016 83.3281C96.8203 83.8177 96.1979 84.5391 95.7344 85.4922C95.276 86.4453 95.0469 87.6146 95.0469 89C95.0469 90.3854 95.276 91.5547 95.7344 92.5078C96.1979 93.4609 96.8203 94.1823 97.6016 94.6719C98.388 95.1615 99.2656 95.4062 100.234 95.4062C101.203 95.4062 102.078 95.1615 102.859 94.6719C103.646 94.1823 104.268 93.4609 104.727 92.5078C105.19 91.5547 105.422 90.3854 105.422 89Z" fill="black"/>
<path d="M37.8125 59H35.875C35.7604 58.4427 35.5599 57.9531 35.2734 57.5312C34.9922 57.1094 34.6484 56.7552 34.2422 56.4688C33.8411 56.1771 33.3958 55.9583 32.9063 55.8125C32.4167 55.6667 31.9063 55.5937 31.375 55.5937C30.4063 55.5937 29.5286 55.8385 28.7422 56.3281C27.9609 56.8177 27.3385 57.5391 26.875 58.4922C26.4167 59.4453 26.1875 60.6146 26.1875 62C26.1875 63.3854 26.4167 64.5547 26.875 65.5078C27.3385 66.4609 27.9609 67.1823 28.7422 67.6719C29.5286 68.1615 30.4063 68.4062 31.375 68.4062C31.9063 68.4062 32.4167 68.3333 32.9063 68.1875C33.3958 68.0417 33.8411 67.8255 34.2422 67.5391C34.6484 67.2474 34.9922 66.8906 35.2734 66.4687C35.5599 66.0417 35.7604 65.5521 35.875 65H37.8125C37.6667 65.8177 37.401 66.5495 37.0156 67.1953C36.6302 67.8411 36.151 68.3906 35.5781 68.8437C35.0052 69.2917 34.362 69.6328 33.6484 69.8672C32.9401 70.1016 32.1823 70.2187 31.375 70.2187C30.0104 70.2187 28.7969 69.8854 27.7344 69.2188C26.6719 68.5521 25.8359 67.6042 25.2266 66.375C24.6172 65.1458 24.3125 63.6875 24.3125 62C24.3125 60.3125 24.6172 58.8542 25.2266 57.625C25.8359 56.3958 26.6719 55.4479 27.7344 54.7812C28.7969 54.1146 30.0104 53.7812 31.375 53.7812C32.1823 53.7812 32.9401 53.8984 33.6484 54.1328C34.362 54.3672 35.0052 54.7109 35.5781 55.1641C36.151 55.612 36.6302 56.1589 37.0156 56.8047C37.401 57.4453 37.6667 58.1771 37.8125 59ZM54.4434 62C54.4434 63.6875 54.1387 65.1458 53.5293 66.375C52.9199 67.6042 52.084 68.5521 51.0215 69.2188C49.959 69.8854 48.7454 70.2187 47.3809 70.2187C46.0163 70.2187 44.8027 69.8854 43.7402 69.2188C42.6777 68.5521 41.8418 67.6042 41.2324 66.375C40.623 65.1458 40.3184 63.6875 40.3184 62C40.3184 60.3125 40.623 58.8542 41.2324 57.625C41.8418 56.3958 42.6777 55.4479 43.7402 54.7812C44.8027 54.1146 46.0163 53.7812 47.3809 53.7812C48.7454 53.7812 49.959 54.1146 51.0215 54.7812C52.084 55.4479 52.9199 56.3958 53.5293 57.625C54.1387 58.8542 54.4434 60.3125 54.4434 62ZM52.5684 62C52.5684 60.6146 52.3366 59.4453 51.873 58.4922C51.4147 57.5391 50.7923 56.8177 50.0059 56.3281C49.2246 55.8385 48.3496 55.5937 47.3809 55.5937C46.4121 55.5937 45.5345 55.8385 44.748 56.3281C43.9668 56.8177 43.3444 57.5391 42.8809 58.4922C42.4225 59.4453 42.1934 60.6146 42.1934 62C42.1934 63.3854 42.4225 64.5547 42.8809 65.5078C43.3444 66.4609 43.9668 67.1823 44.748 67.6719C45.5345 68.1615 46.4121 68.4062 47.3809 68.4062C48.3496 68.4062 49.2246 68.1615 50.0059 67.6719C50.7923 67.1823 51.4147 66.4609 51.873 65.5078C52.3366 64.5547 52.5684 63.3854 52.5684 62ZM57.7012 54H60.0137L65.4512 67.2812H65.6387L71.0762 54H73.3887V70H71.5762V57.8438H71.4199L66.4199 70H64.6699L59.6699 57.8438H59.5137V70H57.7012V54ZM77.2734 70V54H82.6797C83.9349 54 84.9609 54.2266 85.7578 54.6797C86.5599 55.1276 87.1536 55.7344 87.5391 56.5C87.9245 57.2656 88.1172 58.1198 88.1172 59.0625C88.1172 60.0052 87.9245 60.862 87.5391 61.6328C87.1589 62.4036 86.5703 63.0182 85.7734 63.4766C84.9766 63.9297 83.9557 64.1562 82.7109 64.1562H78.8359V62.4375H82.6484C83.5078 62.4375 84.1979 62.2891 84.7188 61.9922C85.2396 61.6953 85.6172 61.2943 85.8516 60.7891C86.0911 60.2786 86.2109 59.7031 86.2109 59.0625C86.2109 58.4219 86.0911 57.849 85.8516 57.3437C85.6172 56.8385 85.237 56.4427 84.7109 56.1562C84.1849 55.8646 83.487 55.7187 82.6172 55.7187H79.2109V70H77.2734ZM90.2617 70H88.2305L94.1055 54H96.1055L101.98 70H99.9492L95.168 56.5312H95.043L90.2617 70ZM91.0117 63.75H99.1992V65.4687H91.0117V63.75ZM117.16 54V70H115.285L106.566 57.4375H106.41V70H104.473V54H106.348L115.098 66.5937H115.254V54H117.16ZM119.662 54H121.881L126.318 61.4687H126.506L130.943 54H133.162L127.381 63.4063V70H125.443V63.4063L119.662 54Z" fill="black"/>
<path d="M37.8125 61H35.875C35.7604 60.4427 35.5599 59.9531 35.2734 59.5312C34.9922 59.1094 34.6484 58.7552 34.2422 58.4688C33.8411 58.1771 33.3958 57.9583 32.9063 57.8125C32.4167 57.6667 31.9063 57.5937 31.375 57.5937C30.4063 57.5937 29.5286 57.8385 28.7422 58.3281C27.9609 58.8177 27.3385 59.5391 26.875 60.4922C26.4167 61.4453 26.1875 62.6146 26.1875 64C26.1875 65.3854 26.4167 66.5547 26.875 67.5078C27.3385 68.4609 27.9609 69.1823 28.7422 69.6719C29.5286 70.1615 30.4063 70.4062 31.375 70.4062C31.9063 70.4062 32.4167 70.3333 32.9063 70.1875C33.3958 70.0417 33.8411 69.8255 34.2422 69.5391C34.6484 69.2474 34.9922 68.8906 35.2734 68.4687C35.5599 68.0417 35.7604 67.5521 35.875 67H37.8125C37.6667 67.8177 37.401 68.5495 37.0156 69.1953C36.6302 69.8411 36.151 70.3906 35.5781 70.8437C35.0052 71.2917 34.362 71.6328 33.6484 71.8672C32.9401 72.1016 32.1823 72.2187 31.375 72.2187C30.0104 72.2187 28.7969 71.8854 27.7344 71.2188C26.6719 70.5521 25.8359 69.6042 25.2266 68.375C24.6172 67.1458 24.3125 65.6875 24.3125 64C24.3125 62.3125 24.6172 60.8542 25.2266 59.625C25.8359 58.3958 26.6719 57.4479 27.7344 56.7812C28.7969 56.1146 30.0104 55.7812 31.375 55.7812C32.1823 55.7812 32.9401 55.8984 33.6484 56.1328C34.362 56.3672 35.0052 56.7109 35.5781 57.1641C36.151 57.612 36.6302 58.1589 37.0156 58.8047C37.401 59.4453 37.6667 60.1771 37.8125 61ZM54.4434 64C54.4434 65.6875 54.1387 67.1458 53.5293 68.375C52.9199 69.6042 52.084 70.5521 51.0215 71.2188C49.959 71.8854 48.7454 72.2187 47.3809 72.2187C46.0163 72.2187 44.8027 71.8854 43.7402 71.2188C42.6777 70.5521 41.8418 69.6042 41.2324 68.375C40.623 67.1458 40.3184 65.6875 40.3184 64C40.3184 62.3125 40.623 60.8542 41.2324 59.625C41.8418 58.3958 42.6777 57.4479 43.7402 56.7812C44.8027 56.1146 46.0163 55.7812 47.3809 55.7812C48.7454 55.7812 49.959 56.1146 51.0215 56.7812C52.084 57.4479 52.9199 58.3958 53.5293 59.625C54.1387 60.8542 54.4434 62.3125 54.4434 64ZM52.5684 64C52.5684 62.6146 52.3366 61.4453 51.873 60.4922C51.4147 59.5391 50.7923 58.8177 50.0059 58.3281C49.2246 57.8385 48.3496 57.5937 47.3809 57.5937C46.4121 57.5937 45.5345 57.8385 44.748 58.3281C43.9668 58.8177 43.3444 59.5391 42.8809 60.4922C42.4225 61.4453 42.1934 62.6146 42.1934 64C42.1934 65.3854 42.4225 66.5547 42.8809 67.5078C43.3444 68.4609 43.9668 69.1823 44.748 69.6719C45.5345 70.1615 46.4121 70.4062 47.3809 70.4062C48.3496 70.4062 49.2246 70.1615 50.0059 69.6719C50.7923 69.1823 51.4147 68.4609 51.873 67.5078C52.3366 66.5547 52.5684 65.3854 52.5684 64ZM57.7012 56H60.0137L65.4512 69.2812H65.6387L71.0762 56H73.3887V72H71.5762V59.8438H71.4199L66.4199 72H64.6699L59.6699 59.8438H59.5137V72H57.7012V56ZM77.2734 72V56H82.6797C83.9349 56 84.9609 56.2266 85.7578 56.6797C86.5599 57.1276 87.1536 57.7344 87.5391 58.5C87.9245 59.2656 88.1172 60.1198 88.1172 61.0625C88.1172 62.0052 87.9245 62.862 87.5391 63.6328C87.1589 64.4036 86.5703 65.0182 85.7734 65.4766C84.9766 65.9297 83.9557 66.1562 82.7109 66.1562H78.8359V64.4375H82.6484C83.5078 64.4375 84.1979 64.2891 84.7188 63.9922C85.2396 63.6953 85.6172 63.2943 85.8516 62.7891C86.0911 62.2786 86.2109 61.7031 86.2109 61.0625C86.2109 60.4219 86.0911 59.849 85.8516 59.3437C85.6172 58.8385 85.237 58.4427 84.7109 58.1562C84.1849 57.8646 83.487 57.7187 82.6172 57.7187H79.2109V72H77.2734ZM90.2617 72H88.2305L94.1055 56H96.1055L101.98 72H99.9492L95.168 58.5312H95.043L90.2617 72ZM91.0117 65.75H99.1992V67.4687H91.0117V65.75ZM117.16 56V72H115.285L106.566 59.4375H106.41V72H104.473V56H106.348L115.098 68.5937H115.254V56H117.16ZM119.662 56H121.881L126.318 63.4687H126.506L130.943 56H133.162L127.381 65.4063V72H125.443V65.4063L119.662 56Z" fill="black"/>
<path d="M37.8125 60H35.875C35.7604 59.4427 35.5599 58.9531 35.2734 58.5312C34.9922 58.1094 34.6484 57.7552 34.2422 57.4688C33.8411 57.1771 33.3958 56.9583 32.9063 56.8125C32.4167 56.6667 31.9063 56.5937 31.375 56.5937C30.4063 56.5937 29.5286 56.8385 28.7422 57.3281C27.9609 57.8177 27.3385 58.5391 26.875 59.4922C26.4167 60.4453 26.1875 61.6146 26.1875 63C26.1875 64.3854 26.4167 65.5547 26.875 66.5078C27.3385 67.4609 27.9609 68.1823 28.7422 68.6719C29.5286 69.1615 30.4063 69.4062 31.375 69.4062C31.9063 69.4062 32.4167 69.3333 32.9063 69.1875C33.3958 69.0417 33.8411 68.8255 34.2422 68.5391C34.6484 68.2474 34.9922 67.8906 35.2734 67.4687C35.5599 67.0417 35.7604 66.5521 35.875 66H37.8125C37.6667 66.8177 37.401 67.5495 37.0156 68.1953C36.6302 68.8411 36.151 69.3906 35.5781 69.8437C35.0052 70.2917 34.362 70.6328 33.6484 70.8672C32.9401 71.1016 32.1823 71.2187 31.375 71.2187C30.0104 71.2187 28.7969 70.8854 27.7344 70.2188C26.6719 69.5521 25.8359 68.6042 25.2266 67.375C24.6172 66.1458 24.3125 64.6875 24.3125 63C24.3125 61.3125 24.6172 59.8542 25.2266 58.625C25.8359 57.3958 26.6719 56.4479 27.7344 55.7812C28.7969 55.1146 30.0104 54.7812 31.375 54.7812C32.1823 54.7812 32.9401 54.8984 33.6484 55.1328C34.362 55.3672 35.0052 55.7109 35.5781 56.1641C36.151 56.612 36.6302 57.1589 37.0156 57.8047C37.401 58.4453 37.6667 59.1771 37.8125 60ZM54.4434 63C54.4434 64.6875 54.1387 66.1458 53.5293 67.375C52.9199 68.6042 52.084 69.5521 51.0215 70.2188C49.959 70.8854 48.7454 71.2187 47.3809 71.2187C46.0163 71.2187 44.8027 70.8854 43.7402 70.2188C42.6777 69.5521 41.8418 68.6042 41.2324 67.375C40.623 66.1458 40.3184 64.6875 40.3184 63C40.3184 61.3125 40.623 59.8542 41.2324 58.625C41.8418 57.3958 42.6777 56.4479 43.7402 55.7812C44.8027 55.1146 46.0163 54.7812 47.3809 54.7812C48.7454 54.7812 49.959 55.1146 51.0215 55.7812C52.084 56.4479 52.9199 57.3958 53.5293 58.625C54.1387 59.8542 54.4434 61.3125 54.4434 63ZM52.5684 63C52.5684 61.6146 52.3366 60.4453 51.873 59.4922C51.4147 58.5391 50.7923 57.8177 50.0059 57.3281C49.2246 56.8385 48.3496 56.5937 47.3809 56.5937C46.4121 56.5937 45.5345 56.8385 44.748 57.3281C43.9668 57.8177 43.3444 58.5391 42.8809 59.4922C42.4225 60.4453 42.1934 61.6146 42.1934 63C42.1934 64.3854 42.4225 65.5547 42.8809 66.5078C43.3444 67.4609 43.9668 68.1823 44.748 68.6719C45.5345 69.1615 46.4121 69.4062 47.3809 69.4062C48.3496 69.4062 49.2246 69.1615 50.0059 68.6719C50.7923 68.1823 51.4147 67.4609 51.873 66.5078C52.3366 65.5547 52.5684 64.3854 52.5684 63ZM57.7012 55H60.0137L65.4512 68.2812H65.6387L71.0762 55H73.3887V71H71.5762V58.8438H71.4199L66.4199 71H64.6699L59.6699 58.8438H59.5137V71H57.7012V55ZM77.2734 71V55H82.6797C83.9349 55 84.9609 55.2266 85.7578 55.6797C86.5599 56.1276 87.1536 56.7344 87.5391 57.5C87.9245 58.2656 88.1172 59.1198 88.1172 60.0625C88.1172 61.0052 87.9245 61.862 87.5391 62.6328C87.1589 63.4036 86.5703 64.0182 85.7734 64.4766C84.9766 64.9297 83.9557 65.1562 82.7109 65.1562H78.8359V63.4375H82.6484C83.5078 63.4375 84.1979 63.2891 84.7188 62.9922C85.2396 62.6953 85.6172 62.2943 85.8516 61.7891C86.0911 61.2786 86.2109 60.7031 86.2109 60.0625C86.2109 59.4219 86.0911 58.849 85.8516 58.3437C85.6172 57.8385 85.237 57.4427 84.7109 57.1562C84.1849 56.8646 83.487 56.7187 82.6172 56.7187H79.2109V71H77.2734ZM90.2617 71H88.2305L94.1055 55H96.1055L101.98 71H99.9492L95.168 57.5312H95.043L90.2617 71ZM91.0117 64.75H99.1992V66.4687H91.0117V64.75ZM117.16 55V71H115.285L106.566 58.4375H106.41V71H104.473V55H106.348L115.098 67.5937H115.254V55H117.16ZM119.662 55H121.881L126.318 62.4687H126.506L130.943 55H133.162L127.381 64.4063V71H125.443V64.4063L119.662 55Z" fill="black"/>
<defs>
<filter id="filter0_d_9_23" x="0" y="0" width="158" height="158" filterUnits="userSpaceOnUse" color-interpolation-filters="sRGB">
<feFlood flood-opacity="0" result="BackgroundImageFix"/>
<feColorMatrix in="SourceAlpha" type="matrix" values="0 0 0 0 0 0 0 0 0 0 0 0 0 0 0 0 0 0 127 0" result="hardAlpha"/>
<feOffset dx="1" dy="4"/>
<feGaussianBlur stdDeviation="2"/>
<feComposite in2="hardAlpha" operator="out"/>
<feColorMatrix type="matrix" values="0 0 0 0 0 0 0 0 0 0 0 0 0 0 0 0 0 0 0.25 0"/>
<feBlend mode="normal" in2="BackgroundImageFix" result="effect1_dropShadow_9_23"/>
<feBlend mode="normal" in="SourceGraphic" in2="effect1_dropShadow_9_23" result="shape"/>
</filter>
</defs>
</svg>
