<svg width="807" height="139" viewBox="0 0 807 139" fill="none" xmlns="http://www.w3.org/2000/svg">
<path d="M209.8 37.68C210.824 37.68 211.827 37.5733 212.808 37.36C213.789 37.104 214.664 36.72 215.432 36.208C216.243 35.696 216.883 35.0347 217.352 34.224C217.821 33.3707 218.056 32.368 218.056 31.216C218.056 30.0213 217.821 29.0187 217.352 28.208C216.925 27.3547 216.328 26.672 215.56 26.16C214.792 25.6053 213.917 25.2213 212.936 25.008C211.955 24.752 210.931 24.624 209.864 24.624H182.472V37.68H209.8ZM209.864 28.208C210.333 28.208 210.845 28.2507 211.4 28.336C211.955 28.4213 212.467 28.592 212.936 28.848C213.405 29.0613 213.789 29.36 214.088 29.744C214.387 30.128 214.536 30.6187 214.536 31.216C214.536 31.8133 214.365 32.304 214.024 32.688C213.725 33.0293 213.32 33.328 212.808 33.584C212.339 33.7973 211.827 33.9467 211.272 34.032C210.717 34.1173 210.227 34.16 209.8 34.16H186.056V28.208H209.864ZM213.256 54.576C214.28 54.576 215.304 54.4693 216.328 54.256C217.352 54 218.248 53.616 219.016 53.104C219.827 52.5493 220.467 51.8667 220.936 51.056C221.448 50.2027 221.704 49.1787 221.704 47.984C221.704 46.9173 221.491 45.9787 221.064 45.168C220.637 44.3573 220.061 43.696 219.336 43.184C218.611 42.6293 217.779 42.224 216.84 41.968C215.944 41.6693 215.005 41.52 214.024 41.52H182.472V54.576H213.256ZM214.024 45.04C214.451 45.04 214.899 45.104 215.368 45.232C215.88 45.3173 216.328 45.488 216.712 45.744C217.139 45.9573 217.48 46.256 217.736 46.64C217.992 47.024 218.12 47.472 218.12 47.984C218.12 48.624 217.949 49.136 217.608 49.52C217.309 49.904 216.904 50.2027 216.392 50.416C215.923 50.6293 215.389 50.7787 214.792 50.864C214.237 50.9493 213.725 50.992 213.256 50.992H186.056V45.04H214.024ZM209.864 20.72C211.613 20.72 213.235 20.912 214.728 21.296C216.221 21.68 217.501 22.2987 218.568 23.152C219.677 24.0053 220.531 25.0933 221.128 26.416C221.768 27.7387 222.109 29.3387 222.152 31.216C222.152 32.24 221.917 33.2213 221.448 34.16C221.021 35.056 220.488 35.8453 219.848 36.528C219.208 37.2107 218.525 37.7653 217.8 38.192C217.075 38.576 216.456 38.7893 215.944 38.832C217.096 38.9173 218.248 39.216 219.4 39.728C220.552 40.1973 221.576 40.8373 222.472 41.648C223.411 42.4587 224.179 43.3973 224.776 44.464C225.373 45.5307 225.672 46.704 225.672 47.984C225.672 49.904 225.352 51.5467 224.712 52.912C224.072 54.2347 223.176 55.3227 222.024 56.176C220.915 56.9867 219.592 57.584 218.056 57.968C216.563 58.3093 214.963 58.48 213.256 58.48H178.632V20.72H209.864ZM213.256 62.064C215.56 62.064 217.693 61.808 219.656 61.296C221.619 60.7413 223.304 59.9093 224.712 58.8C226.12 57.648 227.229 56.1973 228.04 54.448C228.851 52.656 229.256 50.5013 229.256 47.984C229.256 45.8507 228.659 43.952 227.464 42.288C226.312 40.624 224.563 39.3013 222.216 38.32C222.728 37.8933 223.197 37.4027 223.624 36.848C224.051 36.2507 224.413 35.632 224.712 34.992C225.011 34.352 225.245 33.712 225.416 33.072C225.587 32.3893 225.672 31.7707 225.672 31.216C225.672 28.784 225.288 26.6933 224.52 24.944C223.752 23.152 222.664 21.68 221.256 20.528C219.891 19.376 218.227 18.5227 216.264 17.968C214.344 17.4133 212.211 17.136 209.864 17.136H175.048V62.064H213.256ZM173.448 15.536H209.864C213.704 15.536 217.181 16.176 220.296 17.456C223.411 18.736 226.312 20.976 229 24.176C229.896 25.2427 230.707 26.5653 231.432 28.144C232.157 29.68 232.669 31.3013 232.968 33.008C233.267 34.672 233.267 36.3147 232.968 37.936C232.712 39.5573 232.029 40.944 230.92 42.096C232.029 42.5227 232.968 43.248 233.736 44.272C234.504 45.2533 235.123 46.3413 235.592 47.536C236.104 48.7307 236.467 49.9467 236.68 51.184C236.936 52.4213 237.064 53.488 237.064 54.384C237.064 57.1573 236.616 59.5253 235.72 61.488C234.867 63.408 233.672 64.9867 232.136 66.224C230.6 67.504 228.765 68.4213 226.632 68.976C224.499 69.5733 222.173 69.872 219.656 69.872H180.04L173.448 63.664V15.536ZM291.966 37.68H324.542V41.52H291.966V58.48H287.998V20.72H331.134V24.624H291.966V37.68ZM295.486 28.208H334.718V17.136H284.414V62.064H295.486V45.04H328.062V34.16H295.486V28.208ZM282.814 63.664V15.536H336.318L342.526 22.128V36.016H332.734L335.87 39.152V52.848H303.294V69.872H289.406L282.814 63.664ZM381.321 54.576C383.795 54.576 386.099 54.32 388.233 53.808C390.409 53.2533 392.286 52.4 393.865 51.248C395.486 50.0533 396.745 48.5173 397.641 46.64C398.537 44.72 398.985 42.3733 398.985 39.6C398.985 36.8693 398.515 34.544 397.577 32.624C396.681 30.704 395.443 29.168 393.865 28.016C392.286 26.8213 390.409 25.968 388.233 25.456C386.099 24.9013 383.795 24.624 381.321 24.624H374.281C371.763 24.624 369.417 24.9013 367.241 25.456C365.107 25.968 363.251 26.8213 361.673 28.016C360.094 29.168 358.835 30.704 357.897 32.624C357.001 34.544 356.553 36.8693 356.553 39.6C356.553 42.3733 357.001 44.72 357.897 46.64C358.835 48.5173 360.094 50.0533 361.673 51.248C363.251 52.4427 365.107 53.296 367.241 53.808C369.417 54.32 371.763 54.576 374.281 54.576H381.321ZM374.281 50.992C372.361 50.992 370.547 50.8 368.841 50.416C367.134 50.032 365.641 49.4133 364.361 48.56C363.081 47.664 362.057 46.4907 361.289 45.04C360.521 43.5893 360.137 41.776 360.137 39.6C360.137 37.4667 360.521 35.6747 361.289 34.224C362.057 32.7733 363.081 31.6 364.361 30.704C365.683 29.808 367.198 29.168 368.905 28.784C370.611 28.4 372.403 28.208 374.281 28.208H381.321C383.198 28.208 384.99 28.4 386.697 28.784C388.403 29.168 389.897 29.808 391.177 30.704C392.457 31.6 393.481 32.7733 394.249 34.224C395.017 35.6747 395.401 37.4667 395.401 39.6C395.401 41.7333 395.017 43.5253 394.249 44.976C393.523 46.4267 392.521 47.6 391.241 48.496C389.961 49.392 388.467 50.032 386.761 50.416C385.054 50.8 383.241 50.992 381.321 50.992H374.281ZM352.521 39.6C352.521 36.144 353.054 33.2213 354.121 30.832C355.23 28.4427 356.745 26.5013 358.665 25.008C360.627 23.472 362.931 22.384 365.577 21.744C368.265 21.0613 371.166 20.72 374.281 20.72H381.321C384.435 20.72 387.315 21.0613 389.961 21.744C392.606 22.4267 394.889 23.5147 396.809 25.008C398.771 26.5013 400.286 28.4427 401.353 30.832C402.462 33.2213 403.017 36.144 403.017 39.6C403.017 43.056 402.462 45.9787 401.353 48.368C400.286 50.7573 398.771 52.6987 396.809 54.192C394.889 55.6853 392.606 56.7733 389.961 57.456C387.315 58.1387 384.435 58.48 381.321 58.48H374.281C371.166 58.48 368.265 58.16 365.577 57.52C362.931 56.8373 360.627 55.7493 358.665 54.256C356.745 52.72 355.23 50.7573 354.121 48.368C353.054 45.9787 352.521 43.056 352.521 39.6ZM348.937 39.6C348.937 43.6533 349.555 47.1093 350.793 49.968C352.073 52.784 353.822 55.088 356.041 56.88C358.302 58.672 360.969 59.9947 364.041 60.848C367.155 61.6587 370.569 62.064 374.281 62.064H381.321C385.033 62.064 388.425 61.6587 391.497 60.848C394.569 59.9947 397.214 58.672 399.433 56.88C401.694 55.088 403.443 52.784 404.681 49.968C405.918 47.1093 406.537 43.6533 406.537 39.6C406.537 35.5467 405.918 32.112 404.681 29.296C403.443 26.4373 401.694 24.112 399.433 22.32C397.214 20.528 394.569 19.2267 391.497 18.416C388.425 17.5627 385.033 17.136 381.321 17.136H374.281C370.569 17.136 367.155 17.5627 364.041 18.416C360.969 19.2267 358.302 20.528 356.041 22.32C353.822 24.112 352.073 26.4373 350.793 29.296C349.555 32.112 348.937 35.5467 348.937 39.6ZM347.337 39.6C347.337 35.248 347.998 31.5573 349.321 28.528C350.643 25.456 352.499 22.96 354.889 21.04C357.278 19.12 360.115 17.7333 363.401 16.88C366.729 15.984 370.355 15.536 374.281 15.536H381.321C383.795 15.536 386.121 15.6853 388.297 15.984C390.515 16.24 392.691 16.816 394.825 17.712C396.958 18.5653 399.07 19.8027 401.161 21.424C403.294 23.0027 405.491 25.136 407.753 27.824C409.673 29.744 411.251 32.2827 412.489 35.44C413.726 38.5973 414.345 42.1173 414.345 46C414.345 50.3093 413.683 53.9787 412.361 57.008C411.081 60.0373 409.246 62.4907 406.857 64.368C404.51 66.288 401.694 67.6747 398.409 68.528C395.166 69.424 391.603 69.872 387.721 69.872H380.681C376.329 69.872 372.275 69.3813 368.521 68.4C364.766 67.4187 361.673 65.7333 359.241 63.344C356.809 61.2107 354.825 59.2053 353.289 57.328C351.753 55.408 350.537 53.5093 349.641 51.632C348.787 49.7547 348.19 47.8347 347.849 45.872C347.507 43.9093 347.337 41.8187 347.337 39.6ZM381.321 49.392C382.985 49.392 384.563 49.2427 386.057 48.944C387.593 48.6027 388.937 48.048 390.089 47.28C391.241 46.512 392.137 45.5093 392.777 44.272C393.459 42.992 393.801 41.4347 393.801 39.6C393.801 38.576 393.673 37.6373 393.417 36.784C391.667 36.272 389.769 36.016 387.721 36.016H380.681C378.974 36.016 377.353 36.1867 375.817 36.528C374.281 36.8693 372.915 37.424 371.721 38.192C370.569 38.96 369.651 39.984 368.969 41.264C368.286 42.544 367.945 44.1227 367.945 46C367.945 47.024 368.03 47.8773 368.201 48.56C369.097 48.8587 370.057 49.072 371.081 49.2C372.105 49.328 373.171 49.392 374.281 49.392H381.321ZM455.431 28.208C455.943 28.208 456.476 28.2507 457.031 28.336C457.586 28.4213 458.098 28.5707 458.567 28.784C459.036 28.9973 459.42 29.296 459.719 29.68C460.06 30.064 460.231 30.576 460.231 31.216C460.231 31.8133 460.06 32.304 459.719 32.688C459.378 33.072 458.951 33.3707 458.439 33.584C457.97 33.7973 457.436 33.9467 456.839 34.032C456.284 34.1173 455.794 34.16 455.367 34.16H431.687V28.208H455.431ZM455.367 37.68C456.391 37.68 457.394 37.5733 458.375 37.36C459.399 37.104 460.316 36.72 461.127 36.208C461.938 35.696 462.578 35.0347 463.047 34.224C463.559 33.3707 463.815 32.368 463.815 31.216C463.815 30.0213 463.58 28.9973 463.111 28.144C462.642 27.2907 462.002 26.608 461.191 26.096C460.423 25.584 459.527 25.2213 458.503 25.008C457.522 24.752 456.498 24.624 455.431 24.624H428.167V37.68H455.367ZM461.191 40.56C460.594 40.9013 459.932 41.1573 459.207 41.328C458.482 41.4987 457.799 41.6693 457.159 41.84C459.548 44.656 461.938 47.4293 464.327 50.16C466.759 52.8907 469.191 55.664 471.623 58.48H466.439L451.655 41.52H428.167V58.48H424.199V20.72H455.431C457.18 20.72 458.802 20.912 460.295 21.296C461.831 21.68 463.132 22.2987 464.199 23.152C465.308 24.0053 466.162 25.0933 466.759 26.416C467.399 27.7387 467.719 29.3387 467.719 31.216C467.719 33.5627 467.186 35.504 466.119 37.04C465.052 38.5333 463.431 39.7067 461.255 40.56H461.191ZM471.303 31.216C471.303 28.784 470.919 26.6933 470.151 24.944C469.383 23.152 468.295 21.68 466.887 20.528C465.479 19.376 463.794 18.5227 461.831 17.968C459.911 17.4133 457.778 17.136 455.431 17.136H420.743V62.064H431.687V45.04H449.991L464.711 62.064H479.431L463.303 43.568C468.636 41.2213 471.303 37.104 471.303 31.216ZM419.143 63.664V15.536H455.431C457.095 15.536 458.695 15.664 460.231 15.92C461.767 16.1333 463.303 16.6027 464.839 17.328C466.418 18.0533 468.039 19.0987 469.703 20.464C471.41 21.8293 473.223 23.6427 475.143 25.904C476.38 27.1413 477.34 28.8053 478.023 30.896C478.748 32.944 479.111 35.184 479.111 37.616C479.111 40.432 478.492 42.928 477.255 45.104C476.06 47.28 474.311 49.0507 472.007 50.416C473.33 51.952 474.716 53.552 476.167 55.216C477.618 56.88 479.068 58.5653 480.519 60.272C481.97 61.936 483.399 63.5787 484.807 65.2C486.258 66.864 487.623 68.4213 488.903 69.872H470.471L464.007 63.664L454.663 52.848H439.495V69.872H425.735L419.143 63.664ZM537.214 20.72H542.846L561.406 38.96L579.646 20.72H585.214L563.326 42.544V58.48H559.358V42.608L537.214 20.72ZM566.91 62.064V44.016L593.726 17.136H578.238L561.342 34.16L544.19 17.136H528.574L555.838 44.144V62.064H566.91ZM554.238 44.784C551.934 42.5227 549.523 40.1547 547.006 37.68C544.531 35.2053 542.014 32.7093 539.454 30.192C536.894 27.632 534.355 25.1147 531.838 22.64C529.321 20.1653 526.931 17.7973 524.67 15.536H544.83L561.278 31.92L577.534 15.536H597.63L603.582 22.128L574.718 50.992V69.872H560.83L554.238 63.664V44.784ZM635.446 54.576C637.92 54.576 640.224 54.32 642.358 53.808C644.534 53.2533 646.411 52.4 647.99 51.248C649.611 50.0533 650.87 48.5173 651.766 46.64C652.662 44.72 653.11 42.3733 653.11 39.6C653.11 36.8693 652.64 34.544 651.702 32.624C650.806 30.704 649.568 29.168 647.99 28.016C646.411 26.8213 644.534 25.968 642.358 25.456C640.224 24.9013 637.92 24.624 635.446 24.624H628.406C625.888 24.624 623.542 24.9013 621.366 25.456C619.232 25.968 617.376 26.8213 615.798 28.016C614.219 29.168 612.96 30.704 612.022 32.624C611.126 34.544 610.678 36.8693 610.678 39.6C610.678 42.3733 611.126 44.72 612.022 46.64C612.96 48.5173 614.219 50.0533 615.798 51.248C617.376 52.4427 619.232 53.296 621.366 53.808C623.542 54.32 625.888 54.576 628.406 54.576H635.446ZM628.406 50.992C626.486 50.992 624.672 50.8 622.966 50.416C621.259 50.032 619.766 49.4133 618.486 48.56C617.206 47.664 616.182 46.4907 615.414 45.04C614.646 43.5893 614.262 41.776 614.262 39.6C614.262 37.4667 614.646 35.6747 615.414 34.224C616.182 32.7733 617.206 31.6 618.486 30.704C619.808 29.808 621.323 29.168 623.03 28.784C624.736 28.4 626.528 28.208 628.406 28.208H635.446C637.323 28.208 639.115 28.4 640.822 28.784C642.528 29.168 644.022 29.808 645.302 30.704C646.582 31.6 647.606 32.7733 648.374 34.224C649.142 35.6747 649.526 37.4667 649.526 39.6C649.526 41.7333 649.142 43.5253 648.374 44.976C647.648 46.4267 646.646 47.6 645.366 48.496C644.086 49.392 642.592 50.032 640.886 50.416C639.179 50.8 637.366 50.992 635.446 50.992H628.406ZM606.646 39.6C606.646 36.144 607.179 33.2213 608.246 30.832C609.355 28.4427 610.87 26.5013 612.79 25.008C614.752 23.472 617.056 22.384 619.702 21.744C622.39 21.0613 625.291 20.72 628.406 20.72H635.446C638.56 20.72 641.44 21.0613 644.086 21.744C646.731 22.4267 649.014 23.5147 650.934 25.008C652.896 26.5013 654.411 28.4427 655.478 30.832C656.587 33.2213 657.142 36.144 657.142 39.6C657.142 43.056 656.587 45.9787 655.478 48.368C654.411 50.7573 652.896 52.6987 650.934 54.192C649.014 55.6853 646.731 56.7733 644.086 57.456C641.44 58.1387 638.56 58.48 635.446 58.48H628.406C625.291 58.48 622.39 58.16 619.702 57.52C617.056 56.8373 614.752 55.7493 612.79 54.256C610.87 52.72 609.355 50.7573 608.246 48.368C607.179 45.9787 606.646 43.056 606.646 39.6ZM603.062 39.6C603.062 43.6533 603.68 47.1093 604.918 49.968C606.198 52.784 607.947 55.088 610.166 56.88C612.427 58.672 615.094 59.9947 618.166 60.848C621.28 61.6587 624.694 62.064 628.406 62.064H635.446C639.158 62.064 642.55 61.6587 645.622 60.848C648.694 59.9947 651.339 58.672 653.558 56.88C655.819 55.088 657.568 52.784 658.806 49.968C660.043 47.1093 660.662 43.6533 660.662 39.6C660.662 35.5467 660.043 32.112 658.806 29.296C657.568 26.4373 655.819 24.112 653.558 22.32C651.339 20.528 648.694 19.2267 645.622 18.416C642.55 17.5627 639.158 17.136 635.446 17.136H628.406C624.694 17.136 621.28 17.5627 618.166 18.416C615.094 19.2267 612.427 20.528 610.166 22.32C607.947 24.112 606.198 26.4373 604.918 29.296C603.68 32.112 603.062 35.5467 603.062 39.6ZM601.462 39.6C601.462 35.248 602.123 31.5573 603.446 28.528C604.768 25.456 606.624 22.96 609.014 21.04C611.403 19.12 614.24 17.7333 617.526 16.88C620.854 15.984 624.48 15.536 628.406 15.536H635.446C637.92 15.536 640.246 15.6853 642.422 15.984C644.64 16.24 646.816 16.816 648.95 17.712C651.083 18.5653 653.195 19.8027 655.286 21.424C657.419 23.0027 659.616 25.136 661.878 27.824C663.798 29.744 665.376 32.2827 666.614 35.44C667.851 38.5973 668.47 42.1173 668.47 46C668.47 50.3093 667.808 53.9787 666.486 57.008C665.206 60.0373 663.371 62.4907 660.982 64.368C658.635 66.288 655.819 67.6747 652.534 68.528C649.291 69.424 645.728 69.872 641.846 69.872H634.806C630.454 69.872 626.4 69.3813 622.646 68.4C618.891 67.4187 615.798 65.7333 613.366 63.344C610.934 61.2107 608.95 59.2053 607.414 57.328C605.878 55.408 604.662 53.5093 603.766 51.632C602.912 49.7547 602.315 47.8347 601.974 45.872C601.632 43.9093 601.462 41.8187 601.462 39.6ZM635.446 49.392C637.11 49.392 638.688 49.2427 640.182 48.944C641.718 48.6027 643.062 48.048 644.214 47.28C645.366 46.512 646.262 45.5093 646.902 44.272C647.584 42.992 647.926 41.4347 647.926 39.6C647.926 38.576 647.798 37.6373 647.542 36.784C645.792 36.272 643.894 36.016 641.846 36.016H634.806C633.099 36.016 631.478 36.1867 629.942 36.528C628.406 36.8693 627.04 37.424 625.846 38.192C624.694 38.96 623.776 39.984 623.094 41.264C622.411 42.544 622.07 44.1227 622.07 46C622.07 47.024 622.155 47.8773 622.326 48.56C623.222 48.8587 624.182 49.072 625.206 49.2C626.23 49.328 627.296 49.392 628.406 49.392H635.446ZM682.548 20.72V39.6C682.548 42.3733 682.996 44.72 683.892 46.64C684.788 48.5173 686.025 50.0533 687.604 51.248C689.225 52.4 691.103 53.2533 693.236 53.808C695.369 54.32 697.695 54.576 700.212 54.576H707.252C709.727 54.576 712.031 54.32 714.164 53.808C716.34 53.2533 718.217 52.4 719.796 51.248C721.417 50.0533 722.676 48.5173 723.572 46.64C724.511 44.72 724.98 42.3733 724.98 39.6V20.72H729.012V39.6C729.012 43.056 728.457 45.9787 727.348 48.368C726.239 50.7573 724.703 52.72 722.74 54.256C720.82 55.7493 718.537 56.8373 715.892 57.52C713.247 58.16 710.367 58.48 707.252 58.48H700.212C697.097 58.48 694.196 58.16 691.508 57.52C688.863 56.8373 686.559 55.7493 684.596 54.256C682.676 52.72 681.161 50.7573 680.052 48.368C678.985 45.9787 678.452 43.056 678.452 39.6V20.72H682.548ZM674.932 39.6C674.932 43.6533 675.551 47.1093 676.788 49.968C678.025 52.784 679.753 55.088 681.972 56.88C684.233 58.672 686.9 59.9947 689.972 60.848C693.087 61.6587 696.5 62.064 700.212 62.064H707.252C710.964 62.064 714.356 61.6587 717.428 60.848C720.543 59.9947 723.209 58.672 725.428 56.88C727.689 55.088 729.439 52.784 730.676 49.968C731.913 47.1093 732.532 43.6533 732.532 39.6V17.136H721.396V39.6C721.396 41.776 721.012 43.5893 720.244 45.04C719.476 46.4907 718.452 47.664 717.172 48.56C715.892 49.4133 714.399 50.032 712.692 50.416C710.985 50.8 709.172 50.992 707.252 50.992H700.212C698.292 50.992 696.479 50.8 694.772 50.416C693.065 50.032 691.572 49.392 690.292 48.496C689.012 47.6 687.988 46.4267 687.22 44.976C686.495 43.5253 686.132 41.7333 686.132 39.6V17.136H674.932V39.6ZM673.332 15.536H687.732L693.94 22.128V46C693.94 46.4693 693.94 46.9173 693.94 47.344C693.983 47.7707 694.047 48.176 694.132 48.56C695.924 49.1147 697.951 49.392 700.212 49.392H707.252C708.916 49.392 710.495 49.2427 711.988 48.944C713.524 48.6027 714.868 48.048 716.02 47.28C717.172 46.512 718.089 45.5093 718.772 44.272C719.455 43.0347 719.796 41.4773 719.796 39.6V15.536H734.132L740.34 22.128V46C740.34 50.3093 739.679 53.9787 738.356 57.008C737.033 60.0373 735.199 62.4907 732.852 64.368C730.505 66.288 727.689 67.6747 724.404 68.528C721.119 69.424 717.535 69.872 713.652 69.872H706.612C704.436 69.872 702.324 69.7653 700.276 69.552C698.271 69.3387 696.351 68.976 694.516 68.464C692.724 67.9947 691.06 67.3547 689.524 66.544C687.988 65.7333 686.623 64.7307 685.428 63.536C682.996 61.4453 680.991 59.4613 679.412 57.584C677.876 55.664 676.66 53.744 675.764 51.824C674.868 49.904 674.228 47.9627 673.844 46C673.503 43.9947 673.332 41.8613 673.332 39.6V15.536ZM753.322 59.888V56.24H757.29V59.888H753.322ZM760.81 63.408V52.72H749.802V63.408H760.81ZM748.202 65.008V51.12H762.41L768.618 57.712V71.216H754.794L748.202 65.008Z" fill="#0C4D76"/>
<path d="M30.456 54.576C32.9307 54.576 35.2347 54.32 37.368 53.808C39.544 53.2533 41.4213 52.4 43 51.248C44.6213 50.0533 45.88 48.5173 46.776 46.64C47.672 44.72 48.12 42.3733 48.12 39.6V20.72H52.216V39.6C52.216 43.4827 51.576 46.6613 50.296 49.136C49.016 51.568 47.288 53.488 45.112 54.896C42.936 56.2613 40.376 57.2 37.432 57.712C34.5307 58.224 31.4587 58.48 28.216 58.48C26.3387 58.48 24.44 58.3947 22.52 58.224C20.6427 58.0533 18.8293 57.712 17.08 57.2C15.3307 56.688 13.6667 55.9413 12.088 54.96C10.552 53.936 9.18667 52.592 7.992 50.928L12.216 48.368C13.368 49.776 14.648 50.8853 16.056 51.696C17.464 52.5067 18.9573 53.1253 20.536 53.552C22.1147 53.9787 23.736 54.256 25.4 54.384C27.064 54.512 28.7493 54.576 30.456 54.576ZM28.216 50.992C25.144 50.992 22.3067 50.4373 19.704 49.328C17.144 48.176 14.968 46.32 13.176 43.76L3.128 49.776C4.70667 52.592 6.47733 54.8107 8.44 56.432C10.4027 58.0533 12.536 59.2907 14.84 60.144C17.144 60.9547 19.5973 61.488 22.2 61.744C24.8027 61.9573 27.5547 62.064 30.456 62.064C34.168 62.064 37.56 61.6587 40.632 60.848C43.704 59.9947 46.3493 58.672 48.568 56.88C50.8293 55.088 52.5787 52.784 53.816 49.968C55.0533 47.1093 55.672 43.6533 55.672 39.6V17.136H44.6V39.6C44.6 42.16 44.1307 44.1867 43.192 45.68C42.2533 47.1733 41.016 48.3253 39.48 49.136C37.944 49.904 36.1947 50.416 34.232 50.672C32.2693 50.8853 30.264 50.992 28.216 50.992ZM28.216 49.392C30.0507 49.392 31.8427 49.2853 33.592 49.072C35.384 48.8587 36.9627 48.432 38.328 47.792C39.736 47.1093 40.8667 46.128 41.72 44.848C42.5733 43.5253 43 41.776 43 39.6V15.536H57.272L63.48 22.128V46C63.48 50.3093 62.8187 53.9787 61.496 57.008C60.216 60.0373 58.3813 62.4907 55.992 64.368C53.6453 66.288 50.8293 67.6747 47.544 68.528C44.3013 69.424 40.7387 69.872 36.856 69.872C34.4667 69.872 32.1413 69.7867 29.88 69.616C27.6613 69.488 25.5067 69.168 23.416 68.656C21.368 68.144 19.384 67.3973 17.464 66.416C15.5867 65.4773 13.816 64.176 12.152 62.512C10.36 60.8907 8.86667 59.4613 7.672 58.224C6.52 56.9867 5.53867 55.856 4.728 54.832C3.91733 53.808 3.23467 52.848 2.68 51.952C2.08267 51.056 1.50667 50.1173 0.952 49.136L13.56 41.648C13.8587 42.1173 14.2 42.5867 14.584 43.056C14.9253 43.4827 15.3093 43.952 15.736 44.464C16.2053 44.976 16.7387 45.4667 17.336 45.936C18.872 47.1307 20.5787 48.0053 22.456 48.56C24.376 49.1147 26.296 49.392 28.216 49.392Z" fill="#0C4D76"/>
<path d="M114.624 60.864C118.336 60.864 121.792 60.48 124.992 59.712C128.256 58.88 131.072 57.6 133.44 55.872C135.872 54.08 137.76 51.776 139.104 48.96C140.448 46.08 141.12 42.56 141.12 38.4C141.12 33.984 140.384 30.336 138.912 27.456C137.44 24.576 135.424 22.272 132.864 20.544C130.304 18.816 127.328 17.632 123.936 16.992C120.544 16.288 116.928 15.936 113.088 15.936C109.376 15.936 105.888 16.352 102.624 17.184C99.424 17.952 96.64 19.232 94.272 21.024C91.904 22.752 90.016 25.056 88.608 27.936C87.264 30.816 86.592 34.304 86.592 38.4C86.592 42.816 87.328 46.496 88.8 49.44C90.272 52.32 92.256 54.624 94.752 56.352C97.312 58.016 100.288 59.2 103.68 59.904C107.136 60.544 110.784 60.864 114.624 60.864ZM113.088 55.488C110.208 55.488 107.488 55.2 104.928 54.624C102.368 54.048 100.128 53.088 98.208 51.744C96.288 50.4 94.752 48.64 93.6 46.464C92.512 44.288 91.968 41.6 91.968 38.4C91.968 34.944 92.576 32.096 93.792 29.856C95.072 27.616 96.768 25.888 98.88 24.672C100.992 23.392 103.392 22.528 106.08 22.08C108.832 21.568 111.68 21.312 114.624 21.312C117.44 21.312 120.128 21.6 122.688 22.176C125.248 22.752 127.488 23.712 129.408 25.056C131.328 26.4 132.864 28.16 134.016 30.336C135.168 32.512 135.744 35.2 135.744 38.4C135.744 41.92 135.104 44.8 133.824 47.04C132.608 49.216 130.944 50.944 128.832 52.224C126.72 53.44 124.288 54.304 121.536 54.816C118.848 55.264 116.032 55.488 113.088 55.488ZM80.544 38.4C80.544 32.896 81.408 28.32 83.136 24.672C84.928 21.024 87.36 18.144 90.432 16.032C93.504 13.856 97.088 12.32 101.184 11.424C105.344 10.528 109.824 10.08 114.624 10.08C119.296 10.08 123.616 10.592 127.584 11.616C131.552 12.64 134.976 14.272 137.856 16.512C140.8 18.752 143.072 21.664 144.672 25.248C146.336 28.832 147.168 33.216 147.168 38.4C147.168 43.904 146.272 48.48 144.48 52.128C142.752 55.776 140.352 58.688 137.28 60.864C134.208 62.976 130.592 64.48 126.432 65.376C122.336 66.272 117.888 66.72 113.088 66.72C108.416 66.72 104.096 66.208 100.128 65.184C96.16 64.16 92.704 62.528 89.76 60.288C86.88 58.048 84.608 55.136 82.944 51.552C81.344 47.968 80.544 43.584 80.544 38.4ZM75.168 38.4C75.168 44.8 76.16 50.176 78.144 54.528C80.128 58.816 82.88 62.272 86.4 64.896C89.92 67.456 94.08 69.312 98.88 70.464C103.68 71.552 108.928 72.096 114.624 72.096C120.192 72.096 125.28 71.488 129.888 70.272C134.56 68.992 138.56 67.008 141.888 64.32C145.28 61.632 147.904 58.176 149.76 53.952C151.616 49.664 152.544 44.48 152.544 38.4C152.544 32 151.552 26.656 149.568 22.368C147.584 18.016 144.832 14.56 141.312 12C137.792 9.376 133.6 7.52 128.736 6.432C123.936 5.28 118.72 4.704 113.088 4.704C107.52 4.704 102.4 5.344 97.728 6.62399C93.12 7.83999 89.12 9.792 85.728 12.48C82.4 15.168 79.808 18.656 77.952 22.944C76.096 27.168 75.168 32.32 75.168 38.4ZM72.768 38.4C72.768 31.872 73.76 26.336 75.744 21.792C77.728 17.184 80.48 13.44 84 10.56C87.584 7.67999 91.84 5.59999 96.768 4.32C101.76 2.976 107.2 2.304 113.088 2.304C120.768 2.304 127.552 3.168 133.44 4.89599C139.328 6.62399 144.544 9.632 149.088 13.92C152.224 16.992 154.752 19.968 156.672 22.848C158.656 25.664 160.192 28.448 161.28 31.2C162.432 33.952 163.2 36.704 163.584 39.456C164.032 42.208 164.256 45.056 164.256 48C164.256 54.464 163.264 59.968 161.28 64.512C159.296 69.056 156.544 72.736 153.024 75.552C149.504 78.432 145.28 80.512 140.352 81.792C135.424 83.136 130.048 83.808 124.224 83.808C120.832 83.808 117.536 83.648 114.336 83.328C111.2 83.008 108.032 82.304 104.832 81.216C101.696 80.128 98.496 78.528 95.232 76.416C91.968 74.304 88.544 71.456 84.96 67.872C81.184 65.056 78.208 61.184 76.032 56.256C73.856 51.264 72.768 45.312 72.768 38.4ZM113.088 53.088C115.712 53.088 118.24 52.896 120.672 52.512C123.104 52.128 125.248 51.392 127.104 50.304C129.024 49.216 130.528 47.712 131.616 45.792C132.768 43.872 133.344 41.408 133.344 38.4C133.344 36.864 133.152 35.456 132.768 34.176C130.144 33.408 127.296 33.024 124.224 33.024C121.536 33.024 118.944 33.248 116.448 33.696C114.016 34.08 111.84 34.848 109.92 36C108.064 37.088 106.56 38.592 105.408 40.512C104.256 42.432 103.68 44.928 103.68 48C103.68 48.704 103.68 49.376 103.68 50.016C103.744 50.656 103.84 51.264 103.968 51.84C106.656 52.672 109.696 53.088 113.088 53.088Z" fill="#0C4D76"/>
<path d="M60.12 115.425C65.3633 108.968 70.585 102.577 75.785 96.25C80.985 89.88 86.2067 83.4883 91.45 77.075H96.52C91.2767 83.5317 86.055 89.945 80.855 96.315C75.655 102.642 70.4333 109.012 65.19 115.425H60.12ZM104.19 73.435H89.695L52.45 119.065H66.945L104.19 73.435ZM49.07 120.69L88.98 71.81H107.57L113.68 78.505L74.095 126.995H55.96L49.07 120.69Z" fill="#0C4D76"/>
</svg>
